<?xml version="1.0" standalone="no"?>
<!DOCTYPE svg PUBLIC "-//W3C//DTD SVG 20010904//EN"
 "http://www.w3.org/TR/2001/REC-SVG-20010904/DTD/svg10.dtd">
<svg version="1.0" xmlns="http://www.w3.org/2000/svg"
 width="1024.000000pt" height="1024.000000pt" viewBox="0 0 1024.000000 1024.000000"
 preserveAspectRatio="xMidYMid meet">
<metadata>
Created by potrace 1.11, written by Peter Selinger 2001-2013
</metadata>
<g transform="translate(0.000000,1024.000000) scale(0.100000,-0.100000)"
fill="#000000" stroke="none">
<path d="M2815 10192 c-1 -1 -116 -3 -256 -3 -156 0 -257 -4 -265 -10 -8 -7
-14 -7 -19 1 -3 6 -10 8 -15 5 -4 -3 -37 -8 -72 -11 -34 -3 -66 -11 -70 -17
-5 -7 -8 -8 -8 -2 0 6 -13 11 -29 10 -16 0 -27 -4 -23 -9 3 -5 -2 -7 -11 -3
-10 3 -17 3 -17 -1 0 -4 -12 -7 -27 -7 -16 1 -33 -3 -39 -7 -6 -5 -27 -10 -45
-11 -19 -2 -40 -6 -47 -11 -6 -4 -16 -4 -22 -1 -5 3 -10 1 -10 -5 0 -6 -4 -9
-9 -6 -5 3 -25 -1 -45 -9 -20 -8 -38 -15 -41 -15 -8 -1 -29 -7 -65 -19 -19 -7
-39 -13 -45 -14 -5 -2 -14 -5 -20 -8 -5 -4 -23 -9 -38 -13 -17 -4 -25 -11 -21
-18 4 -6 3 -8 -3 -5 -6 4 -28 -1 -49 -10 -22 -9 -46 -18 -54 -19 -8 -2 -16 -8
-18 -13 -2 -6 -12 -11 -22 -11 -10 0 -25 -7 -34 -15 -8 -9 -19 -16 -23 -17
-22 -2 -53 -19 -53 -28 0 -6 -5 -8 -10 -5 -5 3 -10 1 -10 -5 0 -6 -4 -8 -10
-5 -5 3 -10 2 -10 -4 0 -6 -6 -8 -14 -5 -7 3 -16 -2 -20 -11 -3 -9 -10 -13
-16 -10 -5 3 -10 1 -10 -4 0 -6 -7 -11 -15 -11 -8 0 -15 -4 -15 -10 0 -5 -7
-10 -15 -10 -8 0 -15 -4 -15 -10 0 -5 -5 -10 -11 -10 -6 0 -17 -6 -24 -12 -33
-30 -45 -38 -55 -38 -5 0 -10 -5 -10 -11 0 -5 -4 -8 -9 -4 -6 3 -15 -4 -21
-15 -6 -11 -15 -20 -21 -20 -5 0 -22 -11 -37 -25 -15 -14 -32 -25 -39 -25 -7
0 -10 -7 -7 -15 4 -8 1 -15 -6 -15 -19 0 -80 -52 -73 -63 3 -6 1 -7 -6 -3 -6
4 -14 0 -17 -8 -3 -9 -12 -16 -20 -16 -8 0 -13 -3 -12 -7 1 -5 -26 -36 -61
-70 -35 -35 -61 -63 -57 -63 3 0 -3 -9 -14 -20 -11 -11 -25 -20 -31 -20 -5 0
-8 -4 -4 -9 3 -6 -3 -14 -12 -20 -10 -6 -15 -11 -11 -11 4 0 -6 -14 -23 -31
-16 -16 -26 -35 -23 -41 4 -7 2 -8 -4 -4 -7 4 -12 1 -12 -9 0 -9 -4 -14 -9
-10 -5 3 -13 -5 -17 -17 -3 -12 -17 -33 -30 -47 -13 -14 -24 -31 -24 -38 0 -7
-4 -13 -10 -13 -5 0 -12 -11 -16 -25 -3 -14 -13 -25 -21 -25 -8 0 -11 -5 -8
-11 4 -5 -1 -19 -11 -30 -9 -10 -13 -19 -8 -19 5 0 4 -4 -1 -8 -17 -12 -47
-63 -41 -69 3 -4 -3 -12 -14 -20 -11 -8 -20 -22 -20 -32 0 -9 -7 -26 -15 -37
-8 -10 -15 -27 -15 -36 0 -10 -5 -18 -11 -18 -6 0 -9 -7 -6 -15 4 -8 2 -17 -4
-20 -5 -4 -6 -11 -3 -17 4 -6 2 -8 -3 -5 -12 8 -26 -20 -17 -34 3 -5 0 -9 -6
-9 -6 0 -8 -5 -4 -11 3 -6 2 -14 -4 -18 -7 -4 -13 -18 -15 -31 -2 -13 -9 -26
-15 -28 -7 -2 -10 -8 -7 -13 3 -5 1 -17 -4 -27 -7 -13 -6 -23 2 -31 9 -10 9
-12 -3 -9 -8 2 -15 -1 -15 -7 -2 -16 -16 -68 -22 -85 -4 -8 -5 -19 -4 -24 1
-4 -2 -13 -7 -20 -5 -6 -8 -21 -7 -33 1 -12 -5 -25 -13 -28 -11 -4 -12 -8 -2
-20 9 -11 9 -15 1 -15 -7 0 -10 -4 -6 -9 3 -5 1 -12 -4 -16 -7 -4 -7 -15 -1
-31 7 -17 7 -23 0 -19 -14 9 -12 -8 3 -24 10 -11 10 -13 0 -7 -14 8 -14 7 -18
-39 -2 -16 -4 -32 -5 -35 -1 -3 -2 -20 -2 -37 0 -18 -4 -33 -10 -33 -6 0 -6
-6 2 -15 7 -8 8 -15 3 -15 -5 0 -8 -12 -7 -27 1 -16 -3 -33 -8 -40 -5 -7 -5
-13 0 -17 5 -3 8 -18 5 -33 -8 -60 -9 -84 -2 -88 3 -3 5 -17 2 -32 -9 -63 -9
-84 -1 -89 5 -3 4 -12 -2 -19 -7 -8 -7 -15 -1 -19 10 -7 9 -25 -3 -44 -4 -7
-4 -18 1 -25 8 -11 8 -20 0 -95 -2 -18 1 -36 5 -38 5 -3 4 -12 -2 -19 -7 -8
-7 -15 -1 -19 10 -7 9 -25 -3 -44 -4 -7 -4 -18 1 -25 8 -11 8 -20 0 -95 -2
-18 1 -36 5 -38 5 -3 4 -12 -2 -19 -7 -8 -7 -15 -1 -19 10 -7 9 -25 -3 -44 -4
-7 -4 -18 1 -25 8 -11 8 -20 0 -95 -2 -18 1 -36 5 -38 5 -3 4 -12 -2 -19 -7
-8 -7 -15 -1 -19 10 -7 9 -25 -3 -44 -4 -7 -4 -18 1 -25 8 -11 8 -20 0 -95 -2
-18 1 -36 5 -38 5 -3 4 -12 -2 -19 -7 -8 -7 -15 -1 -19 10 -7 9 -25 -3 -44 -4
-7 -4 -18 1 -25 8 -11 8 -20 0 -95 -2 -18 1 -36 5 -38 5 -3 4 -12 -2 -19 -7
-8 -7 -15 -1 -19 10 -7 9 -25 -3 -44 -4 -7 -4 -18 1 -25 8 -11 8 -20 0 -95 -2
-18 1 -36 5 -38 5 -3 4 -12 -2 -19 -7 -8 -7 -15 -1 -19 10 -7 9 -25 -3 -44 -4
-7 -4 -18 1 -25 8 -11 8 -20 0 -95 -2 -18 1 -36 5 -38 5 -3 4 -12 -2 -19 -7
-8 -7 -15 -1 -19 10 -7 9 -25 -3 -44 -4 -7 -4 -18 1 -25 8 -11 8 -20 0 -95 -2
-18 1 -36 5 -38 5 -3 4 -12 -2 -19 -7 -8 -7 -15 -1 -19 10 -7 9 -25 -3 -44 -4
-7 -4 -18 1 -25 8 -11 8 -20 0 -95 -2 -18 1 -36 5 -38 5 -3 4 -12 -2 -19 -7
-8 -7 -15 -1 -19 10 -7 9 -25 -3 -44 -4 -7 -4 -18 1 -25 8 -11 8 -20 0 -95 -2
-18 1 -36 5 -38 5 -3 4 -12 -2 -19 -7 -8 -7 -15 -1 -19 10 -7 9 -25 -3 -44 -4
-7 -4 -18 1 -25 8 -11 8 -20 0 -95 -2 -18 1 -36 5 -38 5 -3 4 -12 -2 -19 -7
-8 -7 -15 -1 -19 10 -7 9 -25 -3 -44 -4 -7 -4 -18 1 -25 8 -11 8 -20 0 -95 -2
-18 1 -36 5 -38 5 -3 4 -12 -2 -19 -7 -8 -7 -15 -1 -19 10 -7 9 -25 -3 -44 -4
-7 -4 -18 1 -25 8 -11 8 -20 0 -95 -2 -18 1 -36 5 -38 5 -3 4 -12 -2 -19 -7
-8 -7 -15 -1 -19 10 -7 9 -25 -3 -44 -4 -7 -4 -18 1 -25 8 -11 8 -20 0 -95 -2
-18 1 -36 5 -38 5 -3 4 -12 -2 -19 -7 -8 -7 -15 -1 -19 10 -7 9 -25 -3 -44 -4
-7 -4 -18 1 -25 8 -11 8 -20 0 -95 -2 -18 1 -36 5 -38 5 -3 4 -12 -2 -19 -7
-8 -7 -15 -1 -19 10 -7 9 -25 -3 -44 -4 -7 -4 -18 1 -25 8 -11 8 -20 0 -95 -2
-18 1 -36 5 -38 5 -3 4 -12 -2 -19 -7 -8 -7 -15 -1 -19 10 -7 9 -25 -3 -44 -4
-7 -4 -18 1 -25 8 -11 8 -20 0 -95 -2 -18 1 -36 5 -38 5 -3 4 -12 -2 -19 -7
-8 -7 -15 -1 -19 10 -7 9 -25 -3 -44 -4 -7 -4 -18 1 -25 8 -11 8 -20 0 -95 -2
-18 1 -36 5 -38 5 -3 4 -12 -2 -19 -7 -8 -7 -15 -1 -19 10 -7 9 -25 -3 -44 -4
-7 -4 -18 1 -25 8 -11 8 -20 0 -95 -2 -18 1 -36 5 -38 5 -3 4 -12 -2 -19 -7
-8 -7 -15 -1 -19 10 -7 9 -25 -3 -44 -4 -7 -4 -18 1 -25 8 -11 8 -20 0 -95 -2
-18 1 -36 5 -38 5 -3 4 -12 -2 -19 -7 -8 -7 -15 -1 -19 10 -7 9 -25 -3 -44 -4
-7 -4 -18 1 -25 8 -11 8 -20 0 -95 -2 -18 1 -36 5 -38 5 -3 4 -12 -2 -19 -7
-8 -7 -15 -1 -19 10 -7 9 -25 -3 -44 -4 -7 -4 -18 1 -25 5 -7 7 -23 6 -37 -4
-36 -5 -84 -3 -90 7 -18 4 -80 -5 -80 -7 0 -7 -3 0 -8 6 -4 10 -16 11 -27 4
-61 15 -159 19 -163 2 -3 0 -14 -6 -25 -7 -12 -7 -17 -1 -13 5 3 12 -1 16 -9
3 -8 0 -15 -7 -15 -8 0 -7 -4 3 -10 17 -10 20 -39 6 -57 -5 -8 -4 -13 3 -13 7
0 10 -4 6 -9 -3 -5 -1 -12 5 -16 6 -4 8 -11 5 -16 -4 -5 -3 -14 1 -21 4 -7 9
-24 12 -38 6 -44 10 -65 12 -67 2 -2 3 -6 4 -10 1 -5 5 -14 9 -20 5 -7 5 -17
2 -23 -3 -5 -1 -10 4 -10 6 0 10 -3 10 -7 -4 -23 2 -43 10 -38 6 3 8 -4 6 -15
-2 -11 2 -20 8 -20 8 0 8 -3 -1 -9 -11 -7 -10 -9 3 -15 9 -3 14 -10 11 -15 -9
-15 5 -42 18 -34 8 5 8 3 0 -8 -9 -11 -9 -17 1 -26 7 -6 16 -9 19 -5 4 3 4 -1
0 -11 -8 -21 14 -77 30 -77 6 0 4 -5 -4 -10 -13 -8 -12 -10 4 -10 12 0 16 -5
12 -15 -3 -8 1 -20 8 -27 7 -7 13 -17 14 -23 5 -23 27 -65 35 -65 5 0 5 -5 2
-10 -3 -6 0 -13 8 -16 8 -3 14 -13 13 -22 -2 -9 4 -24 13 -32 9 -8 25 -32 36
-52 11 -21 23 -38 28 -38 4 0 6 -4 2 -9 -3 -5 5 -17 17 -25 12 -9 19 -18 16
-22 -4 -3 1 -14 10 -24 33 -36 42 -49 42 -60 0 -5 4 -10 8 -10 5 0 17 -16 28
-35 10 -19 24 -35 31 -35 6 0 14 -8 17 -18 4 -10 49 -63 101 -117 52 -55 95
-103 95 -107 0 -4 9 -8 21 -8 11 0 18 -4 15 -8 -6 -10 29 -42 46 -42 6 0 9 -3
5 -6 -8 -8 16 -33 26 -27 4 2 10 -3 13 -11 3 -9 12 -16 19 -16 7 0 16 -7 19
-16 4 -9 9 -14 13 -10 3 3 12 -3 20 -14 8 -11 19 -20 24 -20 5 0 21 -11 34
-24 13 -14 34 -27 45 -31 11 -3 20 -11 20 -16 0 -5 6 -8 12 -7 7 2 12 -3 10
-10 -1 -8 2 -11 7 -8 5 4 16 0 24 -8 8 -8 17 -12 21 -9 3 4 6 2 6 -4 0 -6 14
-16 30 -23 17 -7 30 -17 30 -23 0 -6 3 -7 6 -4 4 4 19 -2 34 -13 16 -11 35
-20 43 -20 8 0 17 -7 21 -15 3 -8 12 -12 19 -9 8 3 17 -2 21 -11 3 -9 10 -13
16 -10 5 3 10 1 10 -4 0 -6 7 -11 15 -11 8 0 36 -12 62 -27 26 -14 48 -25 48
-24 0 3 36 -9 60 -20 12 -6 27 -11 35 -13 8 -2 23 -6 32 -10 9 -4 22 -9 30
-10 7 -2 20 -5 28 -8 49 -18 107 -32 117 -30 6 1 14 -2 18 -8 3 -5 21 -10 40
-10 19 0 36 -4 39 -8 2 -4 20 -9 38 -10 33 -3 71 -9 76 -12 5 -5 25 -8 68 -9
30 -1 43 -5 38 -12 -4 -8 0 -8 15 0 13 8 21 8 21 1 0 -16 5848 -14 5868 2 13
11 14 11 8 0 -7 -11 -4 -12 12 -3 11 6 36 11 55 11 18 0 37 3 40 7 4 3 22 7
39 9 35 2 57 6 126 22 23 5 42 7 42 3 0 -3 4 -1 8 6 4 7 23 13 41 15 18 1 35
6 37 10 3 4 15 8 28 8 12 0 26 3 30 7 4 5 12 9 17 9 5 1 11 3 14 4 3 1 8 3 13
4 11 2 104 36 137 51 17 7 49 21 72 30 24 10 43 21 43 26 0 5 6 6 14 3 8 -3
17 -1 20 5 4 6 27 19 52 30 24 11 52 27 60 36 9 8 20 13 25 10 5 -4 9 -2 9 4
0 6 11 13 25 17 14 3 22 10 19 15 -5 8 18 14 39 10 5 -1 6 3 3 8 -4 5 3 12 14
16 11 3 20 11 20 16 0 6 5 7 10 4 6 -3 10 -1 10 4 0 6 7 11 15 11 8 0 15 5 15
10 0 6 5 10 11 10 6 0 17 6 24 13 36 32 50 42 57 42 5 0 8 4 7 9 0 9 33 31 63
42 10 3 15 10 13 15 -3 4 4 13 16 19 11 7 40 31 64 55 23 24 46 41 49 38 3 -4
6 -1 6 5 0 14 57 71 65 64 3 -3 5 2 5 11 0 10 8 17 18 17 14 0 15 2 2 10 -11
7 -12 10 -2 10 16 0 42 24 42 39 0 6 7 11 15 11 8 0 15 6 15 13 0 7 8 20 18
29 37 37 52 55 52 65 0 6 7 13 15 17 8 3 15 12 15 21 0 8 4 15 9 15 5 0 13 9
16 20 4 11 11 17 17 14 7 -5 9 -1 5 9 -3 9 0 20 7 24 7 5 24 27 38 51 13 23
28 39 32 35 4 -5 6 -3 5 2 -5 17 13 59 32 78 11 10 17 22 15 26 -3 4 3 17 12
27 20 21 22 26 22 50 0 8 4 13 9 10 5 -3 12 1 15 10 4 10 2 13 -7 8 -6 -4 -5
1 5 12 9 10 18 28 20 39 1 11 10 25 18 32 8 7 11 13 6 13 -4 0 -1 11 8 25 9
14 14 30 11 35 -3 6 -1 10 4 10 6 0 11 7 11 15 0 9 7 27 16 40 13 20 14 25 3
25 -11 1 -10 4 2 13 17 13 19 17 19 48 0 11 4 18 9 15 5 -4 7 3 4 14 -3 12 0
20 7 20 9 0 9 4 -1 17 -10 11 -10 14 -1 9 7 -4 12 -1 13 8 2 24 4 30 10 41 4
6 5 18 4 27 -2 10 1 18 7 18 6 0 8 7 4 15 -3 8 -2 15 2 15 7 0 9 12 14 87 2
24 7 43 12 43 4 0 6 9 3 20 -3 11 -2 20 3 20 4 0 7 16 6 35 -1 19 3 35 8 35 6
0 5 5 -1 11 -13 13 -5 42 9 33 6 -4 5 3 -1 15 -9 16 -9 21 0 21 9 0 9 3 0 14
-9 10 -9 16 -1 21 8 5 7 11 -2 23 -10 12 -10 14 0 8 17 -10 18 5684 1 5716 -6
11 -7 18 -2 15 5 -4 10 0 10 8 0 8 -4 12 -9 9 -4 -3 -8 -1 -8 5 0 5 6 12 13
14 9 4 9 6 0 6 -7 1 -10 8 -7 16 4 8 2 15 -2 15 -5 0 -9 17 -9 38 0 20 -7 43
-15 50 -10 9 -10 11 -1 6 10 -5 12 0 6 26 -4 18 -8 38 -9 44 -1 6 -6 17 -10
25 -7 11 -6 12 5 6 11 -7 12 -6 2 7 -7 8 -10 18 -6 21 3 4 2 7 -4 7 -6 0 -9 8
-6 19 3 10 0 22 -6 25 -6 4 -11 12 -11 17 0 6 5 7 11 3 6 -3 3 5 -6 19 -9 15
-14 30 -11 36 3 5 0 12 -6 14 -10 4 -10 6 0 6 10 1 10 4 -2 16 -8 8 -13 24
-11 35 2 11 -1 19 -8 17 -7 -1 -11 6 -9 16 2 10 -4 30 -13 44 -12 17 -13 23
-4 17 11 -6 10 -3 -1 10 -13 17 -20 35 -22 64 -1 6 -5 12 -10 12 -5 0 -6 5 -3
10 3 6 1 10 -4 10 -6 0 -11 8 -11 18 0 10 -3 22 -7 26 -8 7 -9 11 -12 37 0 5
-7 7 -13 3 -7 -4 -10 -4 -6 1 4 4 1 20 -7 35 -8 15 -11 30 -8 34 4 3 1 6 -6 6
-7 0 -9 5 -6 10 3 6 2 10 -3 10 -4 0 -14 16 -22 35 -8 19 -17 35 -20 35 -3 0
-12 16 -20 35 -8 19 -17 35 -22 35 -4 0 -8 6 -8 13 0 7 -9 23 -20 35 -12 12
-17 22 -13 22 4 0 3 4 -2 8 -6 4 -24 28 -40 54 -17 27 -33 48 -37 48 -5 0 -8
7 -8 15 0 7 -8 19 -17 24 -10 6 -14 11 -10 11 5 0 -9 17 -30 38 -21 21 -39 42
-41 47 -1 6 -31 41 -65 79 -34 37 -63 72 -65 77 -2 5 -7 9 -12 9 -5 0 -34 25
-65 55 -30 30 -60 55 -65 55 -6 0 -10 7 -10 16 0 8 -4 12 -10 9 -5 -3 -10 -1
-10 6 0 7 -3 10 -6 7 -3 -4 -18 6 -32 21 -15 15 -35 30 -44 34 -10 3 -18 11
-18 17 0 6 -4 9 -8 6 -5 -3 -15 4 -22 15 -8 10 -20 19 -27 19 -7 0 -13 5 -13
10 0 6 -7 10 -15 10 -8 0 -15 5 -15 10 0 6 -7 10 -15 10 -9 0 -18 7 -21 15 -4
8 -10 13 -14 10 -5 -3 -11 -1 -15 5 -4 6 -11 8 -16 4 -5 -3 -8 0 -7 8 2 8 -4
12 -14 10 -11 -2 -18 3 -18 13 0 9 -6 15 -12 12 -7 -2 -19 3 -26 12 -11 13
-12 13 -7 1 4 -8 -1 -6 -9 4 -9 11 -16 16 -16 12 0 -4 -7 0 -16 8 -8 9 -20 14
-25 11 -5 -4 -9 -1 -9 4 0 6 -9 11 -20 11 -11 0 -20 3 -20 8 0 8 -49 32 -67
32 -7 0 -13 5 -13 11 0 6 -7 9 -15 5 -8 -3 -19 2 -24 12 -6 9 -11 14 -11 9 0
-4 -13 -1 -30 8 -16 9 -30 13 -30 9 0 -3 -15 3 -34 14 -25 15 -37 17 -45 9 -8
-8 -11 -6 -11 7 0 13 -5 17 -20 13 -11 -3 -20 -1 -20 5 0 5 -4 6 -10 3 -5 -3
-10 -1 -10 4 0 6 -3 10 -7 10 -30 -5 -63 2 -57 13 4 6 3 8 -3 5 -5 -3 -27 -1
-49 4 -21 5 -52 12 -69 15 -16 3 -34 9 -40 13 -5 4 -25 7 -42 7 -18 -1 -33 2
-33 6 0 4 -7 4 -17 1 -12 -5 -14 -3 -8 8 8 12 6 12 -8 0 -9 -7 -17 -9 -17 -4
0 9 -2 10 -93 14 -31 1 -57 5 -57 9 0 4 -7 7 -15 7 -8 0 -15 -5 -15 -11 0 -5
-6 -2 -13 9 -8 11 -17 14 -20 8 -4 -6 -26 -9 -49 -7 -65 5 -299 7 -303 3 -2
-2 -110 -2 -240 1 -130 3 -238 3 -240 0 -2 -3 -110 -3 -240 0 -130 3 -238 3
-240 0 -2 -3 -110 -3 -240 0 -130 3 -238 3 -240 0 -2 -3 -110 -3 -240 0 -130
3 -238 3 -240 0 -2 -3 -110 -3 -240 0 -130 3 -238 3 -240 0 -2 -3 -110 -3
-240 0 -130 3 -238 3 -240 0 -2 -3 -110 -3 -240 0 -130 3 -238 3 -240 0 -2 -3
-110 -3 -240 0 -130 3 -238 3 -240 0 -2 -3 -110 -3 -240 0 -130 3 -238 3 -240
0 -2 -3 -110 -3 -240 0 -130 3 -238 4 -240 2z"/>
</g>
</svg>
